<svg width="458" height="399" viewBox="0 0 458 399" fill="none" xmlns="http://www.w3.org/2000/svg">
<path d="M77.5305 106.463H30.9528V146.387H77.5305C83.0754 146.387 87.7887 144.446 91.6701 140.565C95.5516 136.683 97.4924 131.97 97.4924 126.425C97.4924 120.88 95.5516 116.167 91.6701 112.286C87.7887 108.404 83.0754 106.463 77.5305 106.463ZM30.9528 79.8475H50.9146C56.4596 79.8475 61.1728 77.9068 65.0543 74.0253C68.9358 70.1438 70.8765 65.4306 70.8765 59.8856C70.8765 54.3407 68.9358 49.6275 65.0543 45.746C61.1728 41.8645 56.4596 39.9238 50.9146 39.9238H30.9528V79.8475ZM4.33691 13.3079H50.9146C63.8067 13.3079 74.7926 17.8479 83.8725 26.9277C92.9524 36.0076 97.4924 46.9936 97.4924 59.8856C97.4924 67.9952 95.6902 75.3769 92.086 82.0309C98.8786 84.1795 105.013 87.9917 110.488 93.4673C119.568 102.547 124.108 113.533 124.108 126.425C124.108 139.317 119.568 150.303 110.488 159.383C101.408 168.463 90.4225 173.003 77.5305 173.003H4.33691V13.3079Z" fill="white"/>
<path d="M167.359 146.387L155.299 173.003H125.356L205.203 0L285.051 173.003H255.108L243.048 146.387H167.359ZM230.883 119.771L205.203 63.2126L179.523 119.771H230.883Z" fill="white"/>
<path d="M341.194 133.079H321.232V173.003H294.616V13.3079H354.502C371.067 13.3079 385.172 19.1648 396.817 30.8785C408.53 42.523 414.387 56.628 414.387 73.1936C414.387 89.7592 408.565 103.864 396.921 115.509C389.573 122.856 381.291 127.915 372.072 130.688L414.387 173.003H381.117L341.194 133.079ZM321.232 39.9238V106.463H354.502C363.72 106.463 371.552 103.24 377.998 96.7943C384.514 90.279 387.771 82.4121 387.771 73.1936C387.771 63.9751 384.514 56.1428 377.998 49.6968C371.552 43.1814 363.72 39.9238 354.502 39.9238H321.232Z" fill="white"/>
<path d="M343.411 306.081H324.4V252.241L286.376 315.587L248.354 252.241V306.081H229.343V182.508L286.376 277.564L343.411 182.508V306.081ZM63.7368 187.261C80.8171 187.261 95.397 193.276 107.477 205.307C108.269 206.099 109.037 206.915 109.78 207.757L96.3384 221.199C95.5957 220.358 94.8278 219.54 94.0356 218.748C85.6688 210.431 75.5692 206.272 63.7368 206.271H63.6626C51.8795 206.271 41.8287 210.431 33.5112 218.748C25.1443 227.115 20.9614 237.215 20.9614 249.048C20.9615 260.88 25.1197 270.98 33.437 279.347C41.804 287.664 51.9043 291.823 63.7368 291.823C74.4305 291.823 83.6889 288.406 91.5112 281.574L105.027 295.091C93.4419 305.587 79.6784 310.834 63.7368 310.834C46.6563 310.834 32.0757 304.819 19.9956 292.788C7.96518 280.708 1.94981 266.128 1.94971 249.048C1.94971 231.967 7.98977 217.387 20.0698 205.307C32.1004 193.276 46.6316 187.261 63.6626 187.261H63.7368ZM222.51 306.081H201.123L192.557 287.178C194.131 284.31 195.311 281.381 195.564 279.24C196.187 273.972 196.187 269.009 194.567 263.863C192.947 258.717 186.965 250.385 187.214 251.61C188.161 261.02 183.371 264.373 180.858 264.659C181.211 263.74 182.101 261.322 182.666 258.962C184.659 250.63 181.622 244.808 177.929 241.992C171.823 237.336 165.904 234.547 165.904 229.188C165.904 225.819 167.316 221.02 168.521 219.57C168.832 219.448 168.881 219.423 166.588 220.305C163.722 221.407 160.108 224.9 158.301 227.534C156.494 230.168 156.431 232.926 157.802 238.378C159.173 243.83 163.1 242.605 163.224 249.344C163.349 256.083 157.553 255.96 154.687 254.857C151.707 253.711 150.575 252.713 150.575 248.486C150.575 246.462 151.426 245.178 151.883 244.137C151.821 244.116 150.316 244.916 149.702 245.484C146.524 248.425 145.34 251.366 144.592 255.531C143.845 259.697 147.583 263.863 149.702 265.701C151.82 267.539 152.007 271.276 152.007 271.582C152.007 274.985 145.341 277.341 143.097 272.317C141.303 268.299 142.142 265.333 142.786 264.353C143.076 264.046 143.483 263.41 142.786 263.312C141.913 263.189 137.926 266.558 136.742 268.519C135.558 270.479 134.623 274.033 135.059 278.076C135.319 280.487 136.845 284.161 138.402 287.163L129.831 306.081H108.443L165.477 182.508L222.51 306.081ZM414.554 192.014C426.387 192.014 436.462 196.197 444.78 204.563C453.147 212.881 457.331 222.956 457.331 234.789C457.331 246.621 453.147 256.721 444.78 265.088C436.462 273.405 426.387 277.564 414.554 277.564H390.791V306.081H371.779V192.014H414.554Z" fill="#B60604"/>
<path d="M0.872156 335.527C2.00273 333.757 3.40787 332.078 5.08758 330.49C10.5143 325.361 17.0878 322.797 24.808 322.797C32.5282 322.797 39.1017 325.377 44.5284 330.536C49.9875 335.665 52.717 341.877 52.717 349.174C52.717 354.669 51.1827 359.538 48.114 363.782L48.1624 363.828L47.5325 364.515C47.0157 365.217 46.4504 365.904 45.8367 366.575L29.3141 384.343H52.717V396.066H0L24.808 371.246C35.1447 360.592 40.313 353.234 40.313 349.174C40.313 345.113 38.7948 341.664 35.7584 338.825C32.7543 335.955 29.1042 334.52 24.808 334.52C20.5118 334.52 16.8617 335.94 13.8576 338.779C12.081 340.458 10.8212 342.351 10.0782 344.457L0.872156 335.527Z" fill="white"/>
<path d="M93.03 398.997C83.5978 398.997 75.5546 395.288 68.9003 387.869C62.2461 380.42 58.919 371.429 58.919 360.897C58.919 350.364 62.2461 341.389 68.9003 333.97C75.5546 326.521 83.5978 322.797 93.03 322.797C102.462 322.797 110.505 326.521 117.16 333.97C123.814 341.389 127.141 350.364 127.141 360.897C127.141 371.429 123.814 380.42 117.16 387.869C110.505 395.288 102.462 398.997 93.03 398.997ZM93.03 387.274C99.0382 387.274 104.158 384.709 108.39 379.581C112.621 374.421 114.737 368.193 114.737 360.897C114.737 353.6 112.621 347.388 108.39 342.259C104.158 337.1 99.0382 334.52 93.03 334.52C87.0218 334.52 81.9019 337.1 77.6704 342.259C73.4388 347.388 71.323 353.6 71.323 360.897C71.323 368.193 73.4388 374.421 77.6704 379.581C81.9019 384.709 87.0218 387.274 93.03 387.274Z" fill="white"/>
<path d="M134.215 335.527C135.346 333.757 136.751 332.078 138.431 330.49C143.857 325.361 150.431 322.797 158.151 322.797C165.871 322.797 172.445 325.377 177.871 330.536C183.33 335.665 186.06 341.877 186.06 349.174C186.06 354.669 184.526 359.538 181.457 363.782L181.505 363.828L180.876 364.515C180.359 365.217 179.793 365.904 179.18 366.575L162.657 384.343H186.06V396.066H133.343L158.151 371.246C168.488 360.592 173.656 353.234 173.656 349.174C173.656 345.113 172.138 341.664 169.101 338.825C166.097 335.955 162.447 334.52 158.151 334.52C153.855 334.52 150.205 335.94 147.201 338.779C145.424 340.458 144.164 342.351 143.421 344.457L134.215 335.527Z" fill="white"/>
<path d="M220.171 387.274C224.467 387.274 228.117 385.854 231.121 383.015C234.158 380.145 235.676 376.68 235.676 372.62C235.676 368.56 234.158 365.11 231.121 362.271C228.117 359.401 224.467 357.966 220.171 357.966C215.875 357.966 212.209 359.401 209.172 362.271C206.168 365.11 204.666 368.56 204.666 372.62C204.666 376.68 206.168 380.145 209.172 383.015C212.209 385.854 215.875 387.274 220.171 387.274ZM239.455 325.728L221.673 346.289C228.747 346.594 234.836 349.143 239.94 353.936C245.367 359.096 248.08 365.324 248.08 372.62C248.08 379.916 245.35 386.144 239.891 391.304C234.465 396.432 227.891 398.997 220.171 398.997C212.451 398.997 205.861 396.432 200.402 391.304C194.975 386.144 192.262 379.916 192.262 372.62C192.262 367.125 193.796 362.255 196.865 358.012L196.817 357.966L197.446 357.279C197.963 356.577 198.529 355.89 199.142 355.219L224.532 325.728H239.455Z" fill="white"/>
<path d="M287.253 344.451C288.825 344.451 290.162 343.9 291.263 342.799C292.377 341.685 292.934 340.342 292.934 338.77C292.934 337.198 292.377 335.855 291.263 334.741C290.162 333.64 288.825 333.089 287.253 333.089H281.553V344.451H287.253ZM287.253 328.67C290.026 328.67 292.402 329.66 294.382 331.641C296.363 333.609 297.353 335.985 297.353 338.77C297.353 341.543 296.363 343.919 294.382 345.899C292.402 347.88 290.026 348.87 287.253 348.87H281.553V356.779H277.135V328.67H287.253Z" fill="#B60604"/>
<path d="M324.812 328.689V345.621C324.812 348.827 323.667 351.574 321.377 353.864C319.1 356.141 316.358 357.28 313.152 357.28C309.934 357.28 307.187 356.141 304.909 353.864C302.632 351.574 301.493 348.827 301.493 345.621V328.689H305.875V345.621C305.875 347.626 306.586 349.34 308.01 350.764C309.421 352.175 311.135 352.88 313.152 352.88C315.157 352.88 316.865 352.175 318.276 350.764C319.7 349.34 320.411 347.626 320.411 345.621V328.689H324.812Z" fill="#B60604"/>
<path d="M344.176 352.899C346.094 352.899 347.876 352.397 349.523 351.395C351.107 350.392 352.437 348.857 353.514 346.79L357.562 348.536C356.101 351.432 354.22 353.598 351.918 355.034C349.566 356.531 346.985 357.28 344.176 357.28C342.208 357.28 340.32 356.903 338.513 356.148C336.768 355.393 335.227 354.347 333.89 353.01C332.553 351.673 331.508 350.132 330.753 348.387C329.998 346.58 329.62 344.693 329.62 342.725C329.62 340.757 329.998 338.863 330.753 337.043C331.508 335.311 332.553 333.776 333.89 332.439C335.227 331.102 336.768 330.057 338.513 329.302C340.32 328.547 342.208 328.169 344.176 328.169C346.985 328.169 349.566 328.918 351.918 330.415C354.22 331.851 356.101 334.017 357.562 336.913L353.514 338.659C352.437 336.579 351.107 335.057 349.523 334.092C347.876 333.064 346.094 332.551 344.176 332.551C341.366 332.551 338.965 333.541 336.972 335.521C334.992 337.514 334.002 339.915 334.002 342.725C334.002 345.534 334.992 347.935 336.972 349.928C338.965 351.908 341.366 352.899 344.176 352.899Z" fill="#B60604"/>
<path d="M391.073 356.779H386.506L382.7 340.905L375.329 359.007L368.07 340.942L364.282 356.779H359.715L367.049 326.387L375.348 347.162L383.758 326.442L391.073 356.779Z" fill="#B60604"/>
<path d="M426.496 356.779H421.929L418.123 340.905L410.752 359.007L403.493 340.942L399.706 356.779H395.139L402.472 326.387L410.771 347.162L419.181 326.442L426.496 356.779Z" fill="#B60604"/>
<path d="M430.692 352.397H435.073V356.779C435.073 357.979 434.646 359.007 433.792 359.861C432.938 360.715 431.905 361.142 430.692 361.142V358.988C431.311 358.988 431.837 358.772 432.27 358.338C432.703 357.905 432.92 357.385 432.92 356.779H430.692V352.397Z" fill="#B60604"/>
<path d="M283.875 365.776V380.925H291.45C293.562 380.925 295.353 380.191 296.821 378.722C298.29 377.237 299.025 375.446 299.025 373.35C299.025 371.255 298.29 369.472 296.821 368.004C295.336 366.518 293.546 365.776 291.45 365.776H283.875ZM299.297 384.416C300.584 385.34 301.838 386.833 303.06 388.896C304.248 391.223 304.842 393.707 304.842 396.347V397.362H298.95V396.347C298.95 393.723 298.026 391.479 296.178 389.614C294.313 387.749 292.06 386.817 289.42 386.817H283.875V397.362H277.983V359.884H291.45C295.163 359.884 298.34 361.204 300.98 363.845C303.621 366.485 304.941 369.654 304.941 373.35C304.941 375.859 304.289 378.194 302.985 380.356C301.698 382.402 300.469 383.756 299.297 384.416Z" fill="#B60604"/>
<path d="M317.739 391.396C318.531 392.189 318.927 393.146 318.927 394.268C318.927 395.374 318.531 396.322 317.739 397.115C316.963 397.923 316.014 398.328 314.892 398.328C313.77 398.328 312.821 397.923 312.045 397.115C311.253 396.322 310.857 395.374 310.857 394.268C310.857 393.146 311.253 392.189 312.045 391.396C312.837 390.604 313.786 390.208 314.892 390.208C315.998 390.208 316.947 390.604 317.739 391.396Z" fill="#B60604"/>
<path d="M339.968 391.446C343.5 391.429 346.52 390.175 349.028 387.683C351.537 385.175 352.791 382.147 352.791 378.598C352.791 375.05 351.537 372.022 349.028 369.514C346.52 367.005 343.5 365.751 339.968 365.751H332.715V391.446H339.968ZM327.046 397.337V359.859H339.943C342.485 359.859 344.919 360.354 347.246 361.345C349.474 362.302 351.454 363.639 353.187 365.355C354.903 367.088 356.24 369.068 357.197 371.296C358.187 373.623 358.682 376.057 358.682 378.598C358.682 381.123 358.187 383.558 357.197 385.901C356.24 388.129 354.895 390.101 353.162 391.817C351.446 393.55 349.474 394.895 347.246 395.852C344.903 396.842 342.468 397.337 339.943 397.337H327.046Z" fill="#B60604"/>
<path d="M371.555 391.396C372.347 392.189 372.743 393.146 372.743 394.268C372.743 395.374 372.347 396.322 371.555 397.115C370.779 397.923 369.83 398.328 368.708 398.328C367.586 398.328 366.637 397.923 365.861 397.115C365.069 396.322 364.673 395.374 364.673 394.268C364.673 393.146 365.069 392.189 365.861 391.396C366.653 390.604 367.602 390.208 368.708 390.208C369.814 390.208 370.763 390.604 371.555 391.396Z" fill="#B60604"/>
</svg>
