<svg width="433" height="500" viewBox="0 0 433 500" fill="none" xmlns="http://www.w3.org/2000/svg">
<path d="M198.461 378.5C190.961 404.5 137.37 437 190.87 488.5C120.37 521.5 89.9609 466.5 89.9609 466.5C112.052 478.715 127.461 470 127.461 470C76.9609 447 48.4609 435.5 29.3697 353C52.3697 390.648 61.7259 388.092 72.3697 379.5C76.8697 366 80.4653 347.5 44.1749 326.808C-1.24632 300.91 -10.0394 242.5 10.474 190C15.9609 215 29.9609 253 71.9609 262.5C115.17 272.273 130.461 335 117.961 371C117.961 371 125.085 365.915 134.461 354.5C145.961 340.5 136.961 313 136.961 313C97.9609 219 20.4609 199 106.961 127C179.31 66.7791 189.393 29.3723 174.961 0C193.723 14.9859 220.093 43.9395 209.461 90.5C194.961 154 128.564 154.106 151.461 234.5C152.961 217.5 155.961 210.5 187.461 194.5C228.986 173.408 242.069 139.772 238.461 110C262.454 147.465 286.548 219.092 237.961 246.5C198.961 268.5 189.461 291.5 196.961 319C204.461 346.5 205.961 352.5 198.461 378.5Z" fill="#BA1513"/>
<mask id="mask0_316_553" style="mask-type:alpha" maskUnits="userSpaceOnUse" x="21" y="63" width="224" height="419">
<path d="M178.702 223.5C164.702 236.7 160.202 262.333 159.702 273.5C142.499 260.7 133.869 231.833 131.705 219C131.205 202.5 136.405 163.3 161.205 138.5C186.005 113.7 192.538 78.1667 192.705 63.5C175.905 95.9 147.705 121 135.705 129.5C85.7045 165 89.7055 189.5 93.7045 206C96.5379 215.167 108.905 240.2 135.705 267C162.505 293.8 159.79 338.5 149.461 355.5C136.701 376.5 121.961 377.5 112.461 391C95.961 356.5 117.705 297 73.2045 287C37.6045 279 24.0356 257.667 21.7012 248C20.0345 260.5 26.4488 289.809 59.7012 315C99.961 345.5 88.6846 369.243 93.7045 402.5C100.45 424.167 125.594 470.3 172.202 481.5C166.961 477 126.008 444.12 166.961 393C188.19 366.5 187.235 331.803 180.931 311C175.931 294.5 183.702 266.6 215.702 245C247.702 223.4 247.035 179 242.702 159.5C212.702 218.5 196.202 207 178.702 223.5Z" fill="#D01112"/>
</mask>
<g mask="url(#mask0_316_553)">
<rect x="0.460938" y="7.5" width="294" height="514" fill="#D61211"/>
<path d="M124.961 167C175.461 112 187.628 84.1667 192.961 63.5L180.961 64L149.959 106.5L103.461 138L81.9609 195.5L120.461 268.5L148.461 285C141.461 272 84.0313 211.577 124.961 167Z" fill="url(#paint0_linear_316_553)"/>
<path d="M208.783 221.999C228.943 211.882 240.461 179.999 242.961 158.499L241.957 150.999L223.457 174.999L208.783 187.191L156.167 218.814L156.167 258.499L164.961 295.999C164.461 283.499 156.25 248.363 208.783 221.999Z" fill="#ED2917"/>
<path d="M47.1047 288.022C26.9451 277.905 21.4575 252.5 18.9575 231L26.4644 238.5L32.4302 241.022L47.1047 253.214L99.7211 284.837L110.957 323L105.457 356C101.457 338.5 99.6374 314.386 47.1047 288.022Z" fill="url(#paint1_linear_316_553)"/>
<path d="M137.55 373.5C153.15 357.5 159.05 328.833 160.05 316.5C167.716 331.167 179.647 365.7 166.047 386.5C152.447 407.3 150.714 432.167 151.547 442C138.347 433.6 130.382 419.167 128.05 413C124.717 406.5 121.95 389.5 137.55 373.5Z" fill="#DE1413"/>
<path d="M137.55 373.5C153.15 357.5 159.05 328.833 160.05 316.5C162.047 341 158.647 363.2 145.047 384C132.321 403.463 140.346 432.906 149.623 440.708C150.251 441.153 150.893 441.584 151.547 442C150.904 441.679 150.261 441.245 149.623 440.708C137.571 432.19 130.267 418.861 128.05 413C124.717 406.5 121.95 389.5 137.55 373.5Z" fill="#ED2115"/>
</g>
<path fill-rule="evenodd" clip-rule="evenodd" d="M318.349 20.3828C314.955 20.3828 311.991 22.227 310.406 24.9681H298.371C298.371 29.1285 301.743 32.5011 305.904 32.5011H309.179V62.9606H304.593C297.72 62.9606 292.148 68.5328 292.148 75.4064V91.455H291.82C288.202 91.455 285.27 94.3877 285.27 98.0054V113.399C285.27 117.017 288.202 119.949 291.82 119.949H290.838V238.512H287.562C280.689 238.512 275.116 244.084 275.116 250.958V267.007H264.308C257.435 267.007 251.862 272.579 251.862 279.452V289.605H230.901C224.027 289.605 218.455 295.178 218.455 302.051V403.255H216.163C209.289 403.255 203.717 408.828 203.717 415.701V498.564H252.19V437.973C252.19 431.099 257.762 425.527 264.636 425.527H288.217C295.091 425.527 300.663 431.099 300.663 437.973V498.564H318.349V238.512V119.949V91.455V62.9606V20.3828ZM256.12 316.79C256.12 314.076 258.32 311.877 261.033 311.877H272.496C275.21 311.877 277.409 314.076 277.409 316.79V392.447H256.12V316.79ZM290.51 316.79C290.51 314.076 292.71 311.877 295.423 311.877H306.886C309.599 311.877 311.799 314.076 311.799 316.79V392.447H290.51V316.79Z" fill="white"/>
<path d="M318.349 20.3828C321.744 20.3828 324.707 22.227 326.293 24.9681H338.329C338.329 29.1285 334.956 32.5011 330.796 32.5011H327.52V62.9606H318.349V20.3828Z" fill="white"/>
<path d="M344.551 75.4065C344.551 68.5328 338.979 62.9606 332.105 62.9606L318.349 62.9606V91.455H318.35V119.949H318.349V238.512L345.861 238.512V119.949H344.899C348.508 119.939 351.43 117.01 351.43 113.399V98.0054C351.43 94.3877 348.497 91.455 344.879 91.455L344.551 91.455V75.4065Z" fill="white"/>
<path fill-rule="evenodd" clip-rule="evenodd" d="M361.582 250.958C361.582 244.084 356.01 238.512 349.137 238.512L318.349 238.512V498.564H336.035V437.973C336.035 431.099 341.608 425.527 348.481 425.527H372.063C378.936 425.527 384.509 431.099 384.509 437.973V498.564L432.982 498.564V415.701C432.982 408.828 427.41 403.256 420.536 403.256L418.243 403.255V302.051C418.243 295.178 412.671 289.605 405.798 289.605H384.836V279.452C384.836 272.579 379.264 267.007 372.39 267.007L361.582 267.007V250.958ZM324.9 392.447V316.79C324.9 314.076 327.099 311.877 329.813 311.877H341.276C343.989 311.877 346.189 314.076 346.189 316.79V392.447H324.9ZM359.29 316.79C359.29 314.076 361.489 311.877 364.202 311.877H375.666C378.379 311.877 380.578 314.076 380.578 316.79V392.447H359.29V316.79Z" fill="white"/>
<defs>
<linearGradient id="paint0_linear_316_553" x1="199.961" y1="41" x2="71.9609" y2="258.5" gradientUnits="userSpaceOnUse">
<stop stop-color="#D61211"/>
<stop offset="1" stop-color="#ED2917"/>
</linearGradient>
<linearGradient id="paint1_linear_316_553" x1="16.9644" y1="233" x2="128.964" y2="360.5" gradientUnits="userSpaceOnUse">
<stop offset="0.115385" stop-color="#D61211"/>
<stop offset="1" stop-color="#ED2917"/>
</linearGradient>
</defs>
</svg>
