<svg width="8564" height="1818" viewBox="0 0 8564 1818" fill="none" xmlns="http://www.w3.org/2000/svg">
<path d="M2765.91 1032.18H2482.15V1276H2765.91C2799.69 1276 2828.41 1264.15 2852.05 1240.45C2875.7 1216.74 2887.52 1187.96 2887.52 1154.09C2887.52 1120.23 2875.7 1091.45 2852.05 1067.74C2828.41 1044.04 2799.69 1032.18 2765.91 1032.18ZM2482.15 869.639H2603.76C2637.54 869.639 2666.26 857.786 2689.9 834.082C2713.55 810.377 2725.37 781.593 2725.37 747.729C2725.37 713.865 2713.55 685.081 2689.9 661.376C2666.26 637.672 2637.54 625.819 2603.76 625.819H2482.15V869.639ZM2320 463.273H2603.76C2682.3 463.273 2749.23 490.999 2804.55 546.451C2859.87 601.903 2887.52 668.996 2887.52 747.729C2887.52 797.255 2876.55 842.336 2854.59 882.973C2895.97 896.095 2933.34 919.376 2966.7 952.817C3022.02 1008.27 3049.67 1075.36 3049.67 1154.09C3049.67 1232.83 3022.02 1299.92 2966.7 1355.37C2911.38 1410.82 2844.45 1438.55 2765.91 1438.55H2320V463.273Z" fill="white"/>
<path d="M3313.17 1276L3239.69 1438.55H3057.27L3543.72 382L4030.17 1438.55H3847.76L3774.28 1276H3313.17ZM3700.17 1113.46L3543.72 768.047L3387.28 1113.46H3700.17Z" fill="white"/>
<path d="M4372.21 1194.73H4250.6V1438.55H4088.45V463.273H4453.28C4554.2 463.273 4640.14 499.042 4711.08 570.579C4782.44 641.693 4818.12 727.834 4818.12 829.002C4818.12 930.17 4782.65 1016.31 4711.71 1087.43C4666.95 1132.29 4616.49 1163.2 4560.33 1180.13L4818.12 1438.55H4615.43L4372.21 1194.73ZM4250.6 625.819V1032.18H4453.28C4509.44 1032.18 4557.16 1012.5 4596.43 973.135C4636.12 933.345 4655.97 885.301 4655.97 829.002C4655.97 772.704 4636.12 724.871 4596.43 685.504C4557.16 645.714 4509.44 625.819 4453.28 625.819H4250.6Z" fill="white"/>
<path d="M7658.2 1363.51H7507.2V935.872L7205.19 1439.02L6903.19 935.872V1363.51H6752.19V382L7205.19 1137.01L7658.2 382V1363.51ZM5436.81 419.751C5572.48 419.751 5688.29 467.529 5784.24 563.085C5790.53 569.377 5796.62 575.865 5802.52 582.55L5695.76 689.313C5689.86 682.628 5683.77 676.139 5677.47 669.848C5611.02 603.785 5530.8 570.753 5436.81 570.753H5436.22C5342.63 570.753 5262.81 603.784 5196.74 669.848C5130.29 736.304 5097.06 816.525 5097.06 910.508C5097.06 1004.49 5130.09 1084.71 5196.15 1151.17C5262.61 1217.23 5342.83 1250.26 5436.81 1250.26C5521.75 1250.26 5595.29 1223.13 5657.42 1168.86L5764.77 1276.22C5672.76 1359.58 5563.44 1401.27 5436.81 1401.27C5301.15 1401.27 5185.34 1353.49 5089.39 1257.93C4993.83 1161.98 4946.06 1046.17 4946.06 910.508C4946.06 774.842 4994.03 659.034 5089.98 563.085C5185.54 467.529 5300.95 419.751 5436.22 419.751H5436.81ZM6697.92 1363.51H6528.04L6460.01 1213.38C6472.52 1190.6 6481.88 1167.33 6483.89 1150.32C6488.84 1108.47 6488.84 1069.06 6475.97 1028.19C6463.11 987.313 6415.59 921.136 6417.57 930.867C6425.1 1005.61 6387.05 1032.24 6367.09 1034.51C6369.89 1027.21 6376.96 1008.01 6381.44 989.259C6397.28 923.082 6373.16 876.836 6343.83 854.472C6295.32 817.491 6248.31 795.339 6248.31 752.773C6248.31 726.011 6259.53 687.894 6269.09 676.378C6271.57 675.405 6271.96 675.21 6253.75 682.217C6230.98 690.976 6202.28 718.712 6187.92 739.636C6173.57 760.559 6173.08 782.456 6183.96 825.763C6194.85 869.07 6226.03 859.338 6227.02 912.863C6228.01 966.388 6181.99 965.416 6159.22 956.657C6135.55 947.552 6126.55 939.626 6126.55 906.051C6126.55 889.973 6133.32 879.775 6136.95 871.503C6136.45 871.344 6124.51 877.691 6119.62 882.208C6094.38 905.565 6084.98 928.921 6079.04 962.01C6073.1 995.098 6102.8 1028.19 6119.62 1042.78C6136.45 1057.38 6137.94 1087.06 6137.94 1089.5C6137.94 1116.52 6084.98 1135.24 6067.16 1095.34C6052.91 1063.42 6059.57 1039.86 6064.69 1032.08C6067 1029.65 6070.23 1024.59 6064.69 1023.81C6057.76 1022.83 6026.08 1049.6 6016.68 1065.17C6007.28 1080.74 5999.85 1108.96 6003.32 1141.08C6005.38 1160.23 6017.49 1189.43 6029.86 1213.28L5961.78 1363.51H5791.91L6244.91 382L6697.92 1363.51ZM8223.28 457.501C8317.26 457.501 8397.29 490.73 8463.35 557.187C8529.81 623.25 8563.03 703.273 8563.03 797.256C8563.03 891.239 8529.81 971.459 8463.35 1037.92C8397.29 1103.98 8317.26 1137.01 8223.28 1137.01H8034.53V1363.51H7883.52V457.501H8223.28Z" fill="#B60604"/>
<path d="M722.702 1378.32C695.39 1473 500.236 1591.35 695.058 1778.89C438.33 1899.06 327.596 1698.78 327.596 1698.78C408.042 1743.26 464.153 1711.52 464.153 1711.52C280.256 1627.77 176.472 1585.89 106.951 1285.46C190.706 1422.56 224.777 1413.25 263.537 1381.96C279.923 1332.8 293.017 1265.43 160.864 1190.08C-4.53851 1095.77 -36.5586 883.072 38.1414 691.891C58.1223 782.93 109.104 921.308 262.048 955.902C419.394 991.492 475.078 1219.91 429.559 1351.01C429.559 1351.01 455.5 1332.49 489.644 1290.92C531.522 1239.94 498.748 1139.8 498.748 1139.8C356.728 797.496 74.5092 724.665 389.502 462.475C652.962 243.178 689.681 106.96 637.126 0C705.448 54.5715 801.475 160.007 762.759 329.559C709.957 560.796 468.171 561.181 551.55 853.939C557.012 792.033 567.937 766.543 682.645 708.278C833.861 631.47 881.501 508.984 868.363 400.569C955.736 536.997 1043.47 797.831 866.542 897.638C724.523 977.752 689.928 1061.51 717.24 1161.65C744.551 1261.79 750.013 1283.64 722.702 1378.32Z" fill="#BA1513"/>
<mask id="mask0_461_506" style="mask-type:alpha" maskUnits="userSpaceOnUse" x="78" y="231" width="814" height="1523">
<path d="M650.743 813.88C599.762 861.948 583.375 955.292 581.554 995.956C518.911 949.345 487.485 844.226 479.602 797.493C477.781 737.407 496.717 594.659 587.027 504.349C677.337 414.039 701.129 284.644 701.736 231.234C640.558 349.22 537.867 440.622 494.168 471.576C312.092 600.85 326.661 690.068 341.224 750.153C351.542 783.534 396.575 874.693 494.168 972.286C591.761 1069.88 581.877 1232.66 544.263 1294.56C497.798 1371.03 444.121 1374.68 409.526 1423.84C349.441 1298.2 428.621 1081.53 266.572 1045.12C136.934 1015.98 87.5223 938.299 79.0213 903.097C72.9521 948.616 96.3101 1055.34 217.4 1147.08C364.007 1258.15 322.943 1344.61 341.224 1465.71C365.789 1544.61 457.351 1712.61 627.073 1753.4C607.989 1737.01 458.858 1617.27 607.989 1431.12C685.297 1334.62 681.819 1208.27 658.862 1132.51C640.655 1072.43 668.951 970.83 785.48 892.173C902.009 813.515 899.582 651.831 883.802 580.822C774.556 795.672 714.47 753.794 650.743 813.88Z" fill="#D01112"/>
</mask>
<g mask="url(#mask0_461_506)">
<rect x="1.66992" y="27.3047" width="1070.61" height="1871.75" fill="#D61211"/>
<path d="M455.045 608.133C638.942 407.849 683.248 306.493 702.669 231.234L658.971 233.055L546.075 387.82L376.752 502.529L298.459 711.917L438.658 977.749L540.621 1037.83C515.13 990.494 305.998 770.461 455.045 608.133Z" fill="url(#paint0_linear_461_506)"/>
<path d="M760.281 808.417C833.692 771.575 875.639 655.473 884.743 577.18L881.087 549.868L813.718 637.265L760.281 681.664L568.676 796.82L568.676 941.333L600.703 1077.89C598.882 1032.37 568.981 904.423 760.281 808.417Z" fill="#ED2917"/>
<path d="M171.516 1048.84C98.1048 1012 78.1213 919.485 69.0174 841.192L96.354 868.504L118.079 877.688L171.516 922.087L363.121 1037.24L404.038 1176.21L384.01 1296.38C369.444 1232.66 362.816 1144.85 171.516 1048.84Z" fill="url(#paint1_linear_461_506)"/>
<path d="M500.885 1360.11C557.693 1301.85 579.178 1197.46 582.82 1152.55C610.735 1205.96 654.183 1331.71 604.658 1407.45C555.133 1483.2 548.821 1573.75 551.856 1609.56C503.788 1578.97 474.784 1526.41 466.291 1503.95C454.152 1480.28 444.077 1418.38 500.885 1360.11Z" fill="#DE1413"/>
<path d="M500.885 1360.11C557.693 1301.85 579.178 1197.46 582.82 1152.55C590.092 1241.76 577.711 1322.61 528.186 1398.35C481.846 1469.22 511.068 1576.44 544.85 1604.86C547.139 1606.47 549.474 1608.04 551.856 1609.56C549.515 1608.39 547.172 1606.81 544.85 1604.86C500.964 1573.83 474.363 1525.3 466.291 1503.95C454.152 1480.28 444.077 1418.38 500.885 1360.11Z" fill="#ED2115"/>
</g>
<g clip-path="url(#clip0_461_506)">
<path fill-rule="evenodd" clip-rule="evenodd" d="M1159.29 74.2266C1171.66 74.2266 1182.45 80.9423 1188.22 90.9242H1232.05C1232.05 106.074 1219.77 118.356 1204.62 118.356H1192.69V229.275H1209.39C1234.42 229.275 1254.71 249.566 1254.71 274.597V333.038H1255.91C1269.08 333.038 1279.76 343.718 1279.76 356.892V412.948C1279.76 426.098 1269.12 436.761 1255.98 436.802H1259.48V868.552H1271.41C1296.44 868.552 1316.73 888.844 1316.73 913.872V972.314H1356.09C1381.12 972.314 1401.41 992.606 1401.41 1017.64V1054.61H1477.74C1502.77 1054.61 1523.06 1074.9 1523.06 1099.93V1468.47H1531.41C1556.44 1468.47 1576.73 1488.76 1576.73 1513.79V1815.54H1400.22V1594.89C1400.22 1569.86 1379.92 1549.57 1354.9 1549.57H1269.02C1243.99 1549.57 1223.7 1569.86 1223.7 1594.89V1815.54H1094.89V1594.89C1094.89 1569.86 1074.6 1549.57 1049.57 1549.57H963.696C938.665 1549.57 918.374 1569.86 918.374 1594.89V1815.54H741.857V1513.79C741.857 1488.76 762.149 1468.47 787.179 1468.47H795.528V1099.93C795.528 1074.9 815.819 1054.61 840.85 1054.61H917.181V1017.64C917.181 992.606 937.473 972.314 962.503 972.314H1001.86V913.872C1001.86 888.844 1022.15 868.552 1047.18 868.552H1059.11V436.802C1049.51 436.802 1038.83 426.121 1038.83 412.948V356.892C1038.83 343.718 1049.51 333.038 1062.69 333.038H1063.88V274.597C1063.88 249.566 1084.17 229.275 1109.2 229.275H1125.9V118.356H1113.97C1098.82 118.356 1086.54 106.074 1086.54 90.9241H1130.37C1136.14 80.9423 1146.94 74.2266 1159.29 74.2266ZM932.686 1153.6C932.686 1143.72 940.696 1135.71 950.576 1135.71H992.32C1002.2 1135.71 1010.21 1143.72 1010.21 1153.6V1429.11H932.686V1153.6ZM1057.92 1153.6C1057.92 1143.72 1065.93 1135.71 1075.81 1135.71H1117.55C1127.43 1135.71 1135.44 1143.72 1135.44 1153.6V1429.11H1057.92V1153.6ZM1183.15 1429.11V1153.6C1183.15 1143.72 1191.16 1135.71 1201.04 1135.71H1242.78C1252.66 1135.71 1260.67 1143.72 1260.67 1153.6V1429.11H1183.15ZM1308.38 1153.6C1308.38 1143.72 1316.39 1135.71 1326.27 1135.71H1368.01C1377.89 1135.71 1385.9 1143.72 1385.9 1153.6V1429.11H1308.38V1153.6Z" fill="white"/>
</g>
<defs>
<linearGradient id="paint0_linear_461_506" x1="728.16" y1="149.3" x2="262.044" y2="941.333" gradientUnits="userSpaceOnUse">
<stop stop-color="#D61211"/>
<stop offset="1" stop-color="#ED2917"/>
</linearGradient>
<linearGradient id="paint1_linear_461_506" x1="61.7594" y1="848.475" x2="469.611" y2="1312.77" gradientUnits="userSpaceOnUse">
<stop offset="0.115385" stop-color="#D61211"/>
<stop offset="1" stop-color="#ED2917"/>
</linearGradient>
<clipPath id="clip0_461_506">
<rect width="837.593" height="1742.54" fill="white" transform="translate(741.857 74.2266)"/>
</clipPath>
</defs>
</svg>
