<svg width="906" height="500" viewBox="0 0 906 500" fill="none" xmlns="http://www.w3.org/2000/svg">
<path d="M508.012 207.463H461.548V247.387H508.012C513.543 247.387 518.245 245.446 522.117 241.565C525.989 237.683 527.925 232.97 527.925 227.425C527.925 221.88 525.989 217.167 522.117 213.286C518.245 209.404 513.543 207.463 508.012 207.463ZM461.548 180.848H481.461C486.992 180.848 491.694 178.907 495.566 175.025C499.438 171.144 501.374 166.431 501.374 160.886C501.374 155.341 499.438 150.627 495.566 146.746C491.694 142.864 486.992 140.924 481.461 140.924H461.548V180.848ZM434.997 114.308H481.461C494.321 114.308 505.28 118.848 514.338 127.928C523.396 137.008 527.925 147.994 527.925 160.886C527.925 168.995 526.127 176.377 522.532 183.031C529.308 185.18 535.427 188.992 540.889 194.467C549.947 203.547 554.476 214.533 554.476 227.425C554.476 240.317 549.947 251.303 540.889 260.383C531.831 269.463 520.872 274.003 508.012 274.003H434.997V114.308Z" fill="white"/>
<path d="M597.621 247.387L585.59 274.003H555.72L635.373 101L715.026 274.003H685.156L673.125 247.387H597.621ZM660.991 220.771L635.373 164.213L609.756 220.771H660.991Z" fill="white"/>
<path d="M771.032 234.079H751.119V274.003H724.568V114.308H784.307C800.832 114.308 814.903 120.165 826.519 131.879C838.204 143.523 844.047 157.628 844.047 174.194C844.047 190.759 838.239 204.864 826.623 216.509C819.294 223.856 811.031 228.915 801.835 231.688L844.047 274.003H810.858L771.032 234.079ZM751.119 140.924V207.463H784.307C793.503 207.463 801.316 204.24 807.747 197.794C814.246 191.279 817.496 183.412 817.496 174.194C817.496 164.975 814.246 157.143 807.747 150.697C801.316 144.181 793.503 140.924 784.307 140.924H751.119Z" fill="white"/>
<path d="M792.067 407.082H773.056V353.242L735.033 416.588L697.01 353.242V407.082H678V283.509L735.033 378.565L792.067 283.509V407.082Z" fill="#B60604"/>
<path d="M512.393 288.262C529.473 288.262 544.053 294.277 556.133 306.307C556.925 307.1 557.693 307.916 558.436 308.758L544.995 322.2C544.252 321.358 543.484 320.541 542.692 319.749C534.325 311.432 524.225 307.272 512.393 307.272H512.319C500.536 307.272 490.485 311.431 482.167 319.749C473.801 328.116 469.618 338.216 469.618 350.049C469.618 361.881 473.776 371.981 482.093 380.348C490.46 388.665 500.561 392.824 512.393 392.824C523.087 392.824 532.345 389.407 540.167 382.575L553.683 396.092C542.098 406.587 528.335 411.835 512.393 411.835C495.313 411.835 480.732 405.82 468.652 393.789C456.621 381.709 450.606 367.129 450.606 350.049C450.606 332.968 456.646 318.388 468.726 306.307C480.757 294.277 495.288 288.262 512.319 288.262H512.393Z" fill="#B60604"/>
<path d="M671.167 407.082H649.779L641.213 388.179C642.787 385.311 643.967 382.382 644.22 380.241C644.843 374.973 644.843 370.01 643.223 364.864C641.603 359.718 635.621 351.386 635.871 352.611C636.818 362.021 632.027 365.374 629.514 365.66C629.867 364.741 630.757 362.323 631.322 359.963C633.316 351.631 630.278 345.809 626.585 342.993C620.479 338.337 614.56 335.548 614.56 330.189C614.56 326.82 615.973 322.021 617.177 320.571C617.489 320.449 617.537 320.424 615.245 321.306C612.378 322.408 608.765 325.901 606.958 328.535C605.15 331.169 605.088 333.926 606.458 339.379C607.829 344.831 611.756 343.606 611.88 350.345C612.005 357.083 606.21 356.961 603.343 355.858C600.364 354.712 599.231 353.714 599.231 349.487C599.231 347.463 600.083 346.179 600.54 345.138C600.477 345.117 598.973 345.916 598.358 346.485C595.18 349.426 593.996 352.366 593.249 356.532C592.501 360.698 596.239 364.864 598.358 366.702C600.477 368.54 600.664 372.277 600.664 372.583C600.664 375.986 593.997 378.341 591.753 373.318C589.959 369.299 590.798 366.334 591.442 365.353C591.733 365.047 592.139 364.41 591.442 364.312C590.57 364.19 586.582 367.559 585.398 369.519C584.214 371.48 583.279 375.034 583.715 379.077C583.976 381.488 585.501 385.161 587.058 388.164L578.487 407.082H557.099L614.133 283.509L671.167 407.082Z" fill="#B60604"/>
<path d="M863.21 293.015C875.043 293.015 885.119 297.197 893.436 305.564C901.803 313.882 905.987 323.957 905.987 335.79C905.987 347.622 901.803 357.722 893.436 366.089C885.119 374.406 875.043 378.565 863.21 378.565H839.447V407.082H820.435V293.015H863.21Z" fill="#B60604"/>
<path d="M471.528 436.527C472.659 434.756 474.064 433.077 475.744 431.49C481.17 426.361 487.744 423.796 495.464 423.796C503.184 423.796 509.758 426.376 515.184 431.535C520.644 436.664 523.373 442.877 523.373 450.173C523.373 455.668 521.839 460.538 518.77 464.781L518.818 464.827L518.189 465.514C517.672 466.216 517.106 466.903 516.493 467.575L499.97 485.342H523.373V497.066H470.656L495.464 472.246C505.801 461.591 510.969 454.234 510.969 450.173C510.969 446.113 509.451 442.663 506.414 439.824C503.41 436.954 499.76 435.519 495.464 435.519C491.168 435.519 487.518 436.939 484.514 439.778C482.737 441.457 481.477 443.35 480.734 445.457L471.528 436.527Z" fill="white"/>
<path d="M563.686 499.996C554.254 499.996 546.211 496.287 539.556 488.869C532.902 481.419 529.575 472.429 529.575 461.896C529.575 451.364 532.902 442.388 539.556 434.97C546.211 427.521 554.254 423.796 563.686 423.796C573.118 423.796 581.161 427.521 587.816 434.97C594.47 442.388 597.797 451.364 597.797 461.896C597.797 472.429 594.47 481.419 587.816 488.869C581.161 496.287 573.118 499.996 563.686 499.996ZM563.686 488.273C569.694 488.273 574.814 485.709 579.046 480.58C583.277 475.421 585.393 469.193 585.393 461.896C585.393 454.6 583.277 448.387 579.046 443.258C574.814 438.099 569.694 435.519 563.686 435.519C557.678 435.519 552.558 438.099 548.326 443.258C544.095 448.387 541.979 454.6 541.979 461.896C541.979 469.193 544.095 475.421 548.326 480.58C552.558 485.709 557.678 488.273 563.686 488.273Z" fill="white"/>
<path d="M604.871 436.527C606.002 434.756 607.407 433.077 609.087 431.49C614.513 426.361 621.087 423.796 628.807 423.796C636.527 423.796 643.101 426.376 648.527 431.535C653.987 436.664 656.716 442.877 656.716 450.173C656.716 455.668 655.182 460.538 652.113 464.781L652.161 464.827L651.532 465.514C651.015 466.216 650.449 466.903 649.836 467.575L633.313 485.342H656.716V497.066H603.999L628.807 472.246C639.144 461.591 644.312 454.234 644.312 450.173C644.312 446.113 642.794 442.663 639.757 439.824C636.753 436.954 633.103 435.519 628.807 435.519C624.511 435.519 620.861 436.939 617.857 439.778C616.08 441.457 614.82 443.35 614.077 445.457L604.871 436.527Z" fill="white"/>
<path d="M690.827 488.273C695.123 488.273 698.773 486.854 701.777 484.014C704.814 481.145 706.332 477.68 706.332 473.619C706.332 469.559 704.814 466.109 701.777 463.27C698.773 460.4 695.123 458.966 690.827 458.966C686.531 458.966 682.865 460.4 679.828 463.27C676.824 466.109 675.322 469.559 675.322 473.619C675.322 477.68 676.824 481.145 679.828 484.014C682.865 486.854 686.531 488.273 690.827 488.273ZM710.111 426.727L692.329 447.288C699.403 447.594 705.492 450.143 710.596 454.936C716.023 460.095 718.736 466.323 718.736 473.619C718.736 480.916 716.007 487.144 710.547 492.303C705.121 497.432 698.547 499.996 690.827 499.996C683.107 499.996 676.517 497.432 671.058 492.303C665.631 487.144 662.918 480.916 662.918 473.619C662.918 468.124 664.452 463.255 667.521 459.011L667.473 458.966L668.103 458.279C668.619 457.576 669.185 456.89 669.798 456.218L695.188 426.727H710.111Z" fill="white"/>
<path d="M757.909 445.451C759.481 445.451 760.818 444.901 761.919 443.799C763.033 442.685 763.59 441.342 763.59 439.77C763.59 438.198 763.033 436.855 761.919 435.742C760.818 434.64 759.481 434.089 757.909 434.089H752.209V445.451H757.909ZM757.909 429.671C760.681 429.671 763.058 430.661 765.038 432.641C767.019 434.609 768.009 436.985 768.009 439.77C768.009 442.543 767.019 444.919 765.038 446.9C763.058 448.88 760.681 449.87 757.909 449.87H752.209V457.779H747.791V429.671H757.909Z" fill="#B60604"/>
<path d="M795.467 429.689V446.621C795.467 449.827 794.323 452.574 792.033 454.864C789.755 457.142 787.014 458.28 783.808 458.28C780.59 458.28 777.842 457.142 775.565 454.864C773.288 452.574 772.149 449.827 772.149 446.621V429.689H776.53V446.621C776.53 448.626 777.242 450.34 778.665 451.764C780.076 453.175 781.791 453.88 783.808 453.88C785.813 453.88 787.521 453.175 788.932 451.764C790.356 450.34 791.067 448.626 791.067 446.621V429.689H795.467Z" fill="#B60604"/>
<path d="M814.832 453.899C816.75 453.899 818.532 453.398 820.178 452.395C821.763 451.392 823.093 449.858 824.17 447.791L828.217 449.536C826.757 452.432 824.876 454.598 822.573 456.034C820.222 457.532 817.641 458.28 814.832 458.28C812.864 458.28 810.976 457.903 809.169 457.148C807.424 456.393 805.883 455.347 804.546 454.01C803.209 452.673 802.163 451.133 801.408 449.387C800.653 447.58 800.276 445.693 800.276 443.725C800.276 441.757 800.653 439.863 801.408 438.044C802.163 436.311 803.209 434.776 804.546 433.439C805.883 432.103 807.424 431.057 809.169 430.302C810.976 429.547 812.864 429.169 814.832 429.169C817.641 429.169 820.222 429.918 822.573 431.416C824.876 432.851 826.757 435.017 828.217 437.914L824.17 439.659C823.093 437.58 821.763 436.057 820.178 435.092C818.532 434.064 816.75 433.551 814.832 433.551C812.022 433.551 809.621 434.541 807.628 436.521C805.648 438.514 804.657 440.915 804.657 443.725C804.657 446.534 805.648 448.936 807.628 450.928C809.621 452.909 812.022 453.899 814.832 453.899Z" fill="#B60604"/>
<path d="M861.729 457.779H857.161L853.355 441.905L845.985 460.007L838.726 441.942L834.938 457.779H830.371L837.704 427.387L846.003 448.162L854.414 427.443L861.729 457.779Z" fill="#B60604"/>
<path d="M897.152 457.779H892.585L888.779 441.905L881.408 460.007L874.149 441.942L870.362 457.779H865.794L873.128 427.387L881.427 448.162L889.837 427.443L897.152 457.779Z" fill="#B60604"/>
<path d="M901.348 453.398H905.729V457.779C905.729 458.98 905.302 460.007 904.448 460.861C903.594 461.715 902.561 462.142 901.348 462.142V459.988C901.967 459.988 902.493 459.772 902.926 459.339C903.359 458.905 903.576 458.386 903.576 457.779H901.348V453.398Z" fill="#B60604"/>
<path d="M754.531 466.775V481.924H762.106C764.218 481.924 766.009 481.19 767.477 479.721C768.946 478.236 769.68 476.445 769.68 474.349C769.68 472.254 768.946 470.471 767.477 469.003C765.992 467.517 764.201 466.775 762.106 466.775H754.531ZM769.953 485.415C771.24 486.339 772.494 487.832 773.715 489.895C774.904 492.222 775.498 494.706 775.498 497.346V498.361H769.606V497.346C769.606 494.722 768.682 492.478 766.834 490.613C764.969 488.748 762.716 487.816 760.076 487.816H754.531V498.361H748.639V460.883H762.106C765.819 460.883 768.996 462.203 771.636 464.844C774.276 467.484 775.597 470.653 775.597 474.349C775.597 476.858 774.945 479.193 773.641 481.355C772.354 483.401 771.124 484.755 769.953 485.415Z" fill="#B60604"/>
<path d="M788.395 492.395C789.187 493.188 789.583 494.145 789.583 495.267C789.583 496.373 789.187 497.321 788.395 498.114C787.619 498.922 786.67 499.327 785.548 499.327C784.426 499.327 783.477 498.922 782.701 498.114C781.909 497.321 781.513 496.373 781.513 495.267C781.513 494.145 781.909 493.188 782.701 492.395C783.493 491.603 784.442 491.207 785.548 491.207C786.654 491.207 787.603 491.603 788.395 492.395Z" fill="#B60604"/>
<path d="M810.624 492.445C814.156 492.428 817.176 491.174 819.684 488.682C822.193 486.174 823.447 483.146 823.447 479.597C823.447 476.049 822.193 473.021 819.684 470.513C817.176 468.004 814.156 466.75 810.624 466.75H803.371V492.445H810.624ZM797.702 498.336V460.858H810.599C813.141 460.858 815.575 461.353 817.902 462.344C820.13 463.301 822.11 464.638 823.843 466.354C825.559 468.087 826.896 470.067 827.853 472.295C828.843 474.622 829.338 477.056 829.338 479.597C829.338 482.122 828.843 484.556 827.853 486.9C826.896 489.128 825.551 491.1 823.818 492.816C822.102 494.549 820.13 495.894 817.902 496.851C815.558 497.841 813.124 498.336 810.599 498.336H797.702Z" fill="#B60604"/>
<path d="M842.211 492.395C843.003 493.188 843.399 494.145 843.399 495.267C843.399 496.373 843.003 497.321 842.211 498.114C841.435 498.922 840.486 499.327 839.364 499.327C838.242 499.327 837.293 498.922 836.517 498.114C835.725 497.321 835.329 496.373 835.329 495.267C835.329 494.145 835.725 493.188 836.517 492.395C837.309 491.603 838.258 491.207 839.364 491.207C840.47 491.207 841.418 491.603 842.211 492.395Z" fill="#B60604"/>
<path d="M198.461 378.5C190.961 404.5 137.37 437 190.87 488.5C120.37 521.5 89.9609 466.5 89.9609 466.5C112.052 478.715 127.461 470 127.461 470C76.9609 447 48.4609 435.5 29.3697 353C52.3697 390.648 61.7259 388.092 72.3697 379.5C76.8697 366 80.4653 347.5 44.1749 326.808C-1.24632 300.91 -10.0394 242.5 10.474 190C15.9609 215 29.9609 253 71.9609 262.5C115.17 272.273 130.461 335 117.961 371C117.961 371 125.085 365.915 134.461 354.5C145.961 340.5 136.961 313 136.961 313C97.9609 219 20.4609 199 106.961 127C179.31 66.7791 189.393 29.3723 174.961 0C193.723 14.9859 220.093 43.9395 209.461 90.5C194.961 154 128.564 154.106 151.461 234.5C152.961 217.5 155.961 210.5 187.461 194.5C228.986 173.408 242.069 139.772 238.461 110C262.454 147.465 286.548 219.092 237.961 246.5C198.961 268.5 189.461 291.5 196.961 319C204.461 346.5 205.961 352.5 198.461 378.5Z" fill="#BA1513"/>
<mask id="mask0_421_674" style="mask-type:alpha" maskUnits="userSpaceOnUse" x="21" y="63" width="224" height="419">
<path d="M178.702 223.5C164.702 236.7 160.202 262.333 159.702 273.5C142.499 260.7 133.869 231.833 131.705 219C131.205 202.5 136.405 163.3 161.205 138.5C186.005 113.7 192.538 78.1667 192.705 63.5C175.905 95.9 147.705 121 135.705 129.5C85.7045 165 89.7055 189.5 93.7045 206C96.5379 215.167 108.905 240.2 135.705 267C162.505 293.8 159.79 338.5 149.461 355.5C136.701 376.5 121.961 377.5 112.461 391C95.961 356.5 117.705 297 73.2045 287C37.6045 279 24.0356 257.667 21.7012 248C20.0345 260.5 26.4488 289.809 59.7012 315C99.961 345.5 88.6846 369.243 93.7045 402.5C100.45 424.167 125.594 470.3 172.202 481.5C166.961 477 126.008 444.12 166.961 393C188.19 366.5 187.235 331.803 180.931 311C175.931 294.5 183.702 266.6 215.702 245C247.702 223.4 247.035 179 242.702 159.5C212.702 218.5 196.202 207 178.702 223.5Z" fill="#D01112"/>
</mask>
<g mask="url(#mask0_421_674)">
<rect x="0.460938" y="7.5" width="294" height="514" fill="#D61211"/>
<path d="M124.961 167C175.461 112 187.628 84.1667 192.961 63.5L180.961 64L149.959 106.5L103.461 138L81.9609 195.5L120.461 268.5L148.461 285C141.461 272 84.0313 211.577 124.961 167Z" fill="url(#paint0_linear_421_674)"/>
<path d="M208.783 221.999C228.943 211.882 240.461 179.999 242.961 158.499L241.957 150.999L223.457 174.999L208.783 187.191L156.167 218.814L156.167 258.499L164.961 295.999C164.461 283.499 156.25 248.363 208.783 221.999Z" fill="#ED2917"/>
<path d="M47.1047 288.022C26.9451 277.905 21.4575 252.5 18.9575 231L26.4644 238.5L32.4302 241.022L47.1047 253.214L99.7211 284.837L110.957 323L105.457 356C101.457 338.5 99.6374 314.386 47.1047 288.022Z" fill="url(#paint1_linear_421_674)"/>
<path d="M137.55 373.5C153.15 357.5 159.05 328.833 160.05 316.5C167.716 331.167 179.647 365.7 166.047 386.5C152.447 407.3 150.714 432.167 151.547 442C138.347 433.6 130.382 419.167 128.05 413C124.717 406.5 121.95 389.5 137.55 373.5Z" fill="#DE1413"/>
<path d="M137.55 373.5C153.15 357.5 159.05 328.833 160.05 316.5C162.047 341 158.647 363.2 145.047 384C132.321 403.463 140.346 432.906 149.623 440.708C150.251 441.153 150.893 441.584 151.547 442C150.904 441.679 150.261 441.245 149.623 440.708C137.571 432.19 130.267 418.861 128.05 413C124.717 406.5 121.95 389.5 137.55 373.5Z" fill="#ED2115"/>
</g>
<path fill-rule="evenodd" clip-rule="evenodd" d="M318.349 20.3828C314.955 20.3828 311.991 22.227 310.406 24.9681H298.371C298.371 29.1285 301.743 32.5011 305.904 32.5011H309.179V62.9606H304.593C297.72 62.9606 292.148 68.5328 292.148 75.4064V91.455H291.82C288.202 91.455 285.27 94.3877 285.27 98.0054V113.399C285.27 117.017 288.202 119.949 291.82 119.949H290.838V238.512H287.562C280.689 238.512 275.116 244.084 275.116 250.958V267.007H264.308C257.435 267.007 251.862 272.579 251.862 279.452V289.605H230.901C224.027 289.605 218.455 295.178 218.455 302.051V403.255H216.163C209.289 403.255 203.717 408.828 203.717 415.701V498.564H252.19V437.973C252.19 431.099 257.762 425.527 264.636 425.527H288.217C295.091 425.527 300.663 431.099 300.663 437.973V498.564H318.349V238.512V119.949V91.455V62.9606V20.3828ZM256.12 316.79C256.12 314.076 258.32 311.877 261.033 311.877H272.496C275.21 311.877 277.409 314.076 277.409 316.79V392.447H256.12V316.79ZM290.51 316.79C290.51 314.076 292.71 311.877 295.423 311.877H306.886C309.599 311.877 311.799 314.076 311.799 316.79V392.447H290.51V316.79Z" fill="white"/>
<path d="M318.349 20.3828C321.744 20.3828 324.707 22.227 326.293 24.9681H338.329C338.329 29.1285 334.956 32.5011 330.796 32.5011H327.52V62.9606H318.349V20.3828Z" fill="white"/>
<path d="M344.551 75.4065C344.551 68.5328 338.979 62.9606 332.105 62.9606L318.349 62.9606V91.455H318.35V119.949H318.349V238.512L345.861 238.512V119.949H344.899C348.508 119.939 351.43 117.01 351.43 113.399V98.0054C351.43 94.3877 348.497 91.455 344.879 91.455L344.551 91.455V75.4065Z" fill="white"/>
<path fill-rule="evenodd" clip-rule="evenodd" d="M361.582 250.958C361.582 244.084 356.01 238.512 349.137 238.512L318.349 238.512V498.564H336.035V437.973C336.035 431.099 341.608 425.527 348.481 425.527H372.063C378.936 425.527 384.509 431.099 384.509 437.973V498.564L432.982 498.564V415.701C432.982 408.828 427.41 403.256 420.536 403.256L418.243 403.255V302.051C418.243 295.178 412.671 289.605 405.798 289.605H384.836V279.452C384.836 272.579 379.264 267.007 372.39 267.007L361.582 267.007V250.958ZM324.9 392.447V316.79C324.9 314.076 327.099 311.877 329.813 311.877H341.276C343.989 311.877 346.189 314.076 346.189 316.79V392.447H324.9ZM359.29 316.79C359.29 314.076 361.489 311.877 364.202 311.877H375.666C378.379 311.877 380.578 314.076 380.578 316.79V392.447H359.29V316.79Z" fill="white"/>
<defs>
<linearGradient id="paint0_linear_421_674" x1="199.961" y1="41" x2="71.9609" y2="258.5" gradientUnits="userSpaceOnUse">
<stop stop-color="#D61211"/>
<stop offset="1" stop-color="#ED2917"/>
</linearGradient>
<linearGradient id="paint1_linear_421_674" x1="16.9644" y1="233" x2="128.964" y2="360.5" gradientUnits="userSpaceOnUse">
<stop offset="0.115385" stop-color="#D61211"/>
<stop offset="1" stop-color="#ED2917"/>
</linearGradient>
</defs>
</svg>
