<svg width="431" height="500" viewBox="0 0 431 500" fill="none" xmlns="http://www.w3.org/2000/svg">
<path d="M197.544 378.5C190.079 404.5 136.735 437 189.988 488.5C119.814 521.5 89.5454 466.5 89.5454 466.5C111.535 478.715 126.872 470 126.872 470C76.6054 447 48.2371 435.5 29.2341 353C52.1278 390.648 61.4408 388.092 72.0354 379.5C76.5146 366 80.0936 347.5 43.9709 326.808C-1.24056 300.91 -9.99298 242.5 10.4256 190C15.8872 215 29.8225 253 71.6286 262.5C114.638 272.273 129.858 335 117.416 371C117.416 371 124.507 365.915 133.84 354.5C145.287 340.5 136.328 313 136.328 313C97.5085 219 20.3664 199 106.467 127C178.481 66.7791 188.518 29.3723 174.153 0C192.828 14.9859 219.076 43.9395 208.493 90.5C194.06 154 127.97 154.106 150.761 234.5C152.254 217.5 155.241 210.5 186.595 194.5C227.929 173.408 240.951 139.772 237.359 110C261.242 147.465 285.224 219.092 236.862 246.5C198.042 268.5 188.586 291.5 196.051 319C203.517 346.5 205.01 352.5 197.544 378.5Z" fill="#BA1513"/>
<mask id="mask0_316_583" style="mask-type:alpha" maskUnits="userSpaceOnUse" x="21" y="63" width="223" height="419">
<path d="M177.876 223.5C163.94 236.7 159.461 262.333 158.963 273.5C141.841 260.7 133.25 231.833 131.096 219C130.598 202.5 135.774 163.3 160.459 138.5C185.145 113.7 191.648 78.1667 191.814 63.5C175.092 95.9 147.022 121 135.077 129.5C85.3082 165 89.2907 189.5 93.2712 206C96.0915 215.167 108.401 240.2 135.077 267C161.753 293.8 159.052 338.5 148.77 355.5C136.069 376.5 121.397 377.5 111.941 391C95.5172 356.5 117.16 297 72.8659 287C37.4304 279 23.9241 257.667 21.6005 248C19.9415 260.5 26.3262 289.809 59.4249 315C99.4987 345.5 88.2744 369.243 93.2712 402.5C99.986 424.167 125.014 470.3 171.406 481.5C166.189 477 125.426 444.12 166.189 393C187.321 366.5 186.37 331.803 180.095 311C175.118 294.5 182.853 266.6 214.705 245C246.557 223.4 245.893 179 241.58 159.5C211.719 218.5 195.295 207 177.876 223.5Z" fill="#D01112"/>
</mask>
<g mask="url(#mask0_316_583)">
<rect x="0.457031" y="7.5" width="292.642" height="514" fill="#D61211"/>
<path d="M124.382 167C174.649 112 186.76 84.1667 192.068 63.5L180.124 64L149.265 106.5L102.982 138L81.5811 195.5L119.903 268.5L147.774 285C140.806 272 83.6419 211.577 124.382 167Z" fill="url(#paint0_linear_316_583)"/>
<path d="M207.813 221.999C227.88 211.882 239.345 179.999 241.834 158.499L240.835 150.999L222.42 174.999L207.813 187.191L155.44 218.814L155.44 258.499L164.194 295.999C163.697 283.499 155.523 248.363 207.813 221.999Z" fill="#ED2917"/>
<path d="M46.8843 288.022C26.8179 277.905 21.3556 252.5 18.8671 231L26.3393 238.5L32.2776 241.022L46.8843 253.214L99.2577 284.837L110.442 323L104.968 356C100.986 338.5 99.1743 314.386 46.8843 288.022Z" fill="url(#paint1_linear_316_583)"/>
<path d="M136.912 373.5C152.44 357.5 158.313 328.833 159.308 316.5C166.938 331.167 178.815 365.7 165.277 386.5C151.74 407.3 150.015 432.167 150.844 442C137.705 433.6 129.777 419.167 127.456 413C124.138 406.5 121.384 389.5 136.912 373.5Z" fill="#DE1413"/>
<path d="M136.912 373.5C152.44 357.5 158.313 328.833 159.308 316.5C161.296 341 157.912 363.2 144.374 384C131.708 403.463 139.695 432.906 148.929 440.708C149.555 441.153 150.193 441.584 150.844 442C150.204 441.679 149.564 441.245 148.929 440.708C136.933 432.19 129.662 418.861 127.456 413C124.138 406.5 121.384 389.5 136.912 373.5Z" fill="#ED2115"/>
</g>
<path fill-rule="evenodd" clip-rule="evenodd" d="M316.88 20.3828C313.502 20.3828 310.552 22.227 308.973 24.9681H296.994C296.994 29.1285 300.351 32.5011 304.492 32.5011H307.752V62.9606H303.188C296.346 62.9606 290.8 68.5328 290.8 75.4064V91.455H290.474C286.873 91.455 283.954 94.3877 283.954 98.0054V113.399C283.954 117.017 286.873 119.949 290.474 119.949H289.496V238.512H286.236C279.394 238.512 273.847 244.084 273.847 250.958V267.007H263.089C256.247 267.007 250.701 272.579 250.701 279.452V289.605H229.836C222.994 289.605 217.448 295.178 217.448 302.051V403.255H215.166C208.324 403.255 202.777 408.828 202.777 415.701V498.564H251.027V437.973C251.027 431.099 256.573 425.527 263.415 425.527H286.888C293.729 425.527 299.276 431.099 299.276 437.973V498.564H316.88V238.512V119.949V91.455V62.9606V20.3828ZM254.939 316.79C254.939 314.076 257.128 311.877 259.829 311.877H271.239C273.94 311.877 276.129 314.076 276.129 316.79V392.447H254.939V316.79ZM289.17 316.79C289.17 314.076 291.359 311.877 294.06 311.877H305.47C308.171 311.877 310.36 314.076 310.36 316.79V392.447H289.17V316.79Z" fill="#0F0F0F"/>
<path d="M316.88 20.3828C320.259 20.3828 323.209 22.227 324.787 24.9681H336.768C336.768 29.1285 333.41 32.5011 329.269 32.5011H326.009V62.9606H316.88V20.3828Z" fill="#0F0F0F"/>
<path d="M342.961 75.4065C342.961 68.5328 337.415 62.9606 330.573 62.9606L316.88 62.9606V91.455H316.881V119.949H316.88V238.512L344.265 238.512V119.949H343.308C346.899 119.939 349.808 117.01 349.808 113.399V98.0054C349.808 94.3877 346.889 91.455 343.288 91.455L342.961 91.455V75.4065Z" fill="#0F0F0F"/>
<path fill-rule="evenodd" clip-rule="evenodd" d="M359.914 250.958C359.914 244.084 354.367 238.512 347.525 238.512L316.88 238.512V498.564H334.485V437.973C334.485 431.099 340.031 425.527 346.873 425.527H370.346C377.188 425.527 382.734 431.099 382.734 437.973V498.564L430.983 498.564V415.701C430.983 408.828 425.437 403.256 418.595 403.256L416.313 403.255V302.051C416.313 295.178 410.767 289.605 403.925 289.605H383.06V279.452C383.06 272.579 377.514 267.007 370.672 267.007L359.914 267.007V250.958ZM323.401 392.447V316.79C323.401 314.076 325.59 311.877 328.291 311.877H339.701C342.402 311.877 344.591 314.076 344.591 316.79V392.447H323.401ZM357.631 316.79C357.631 314.076 359.821 311.877 362.522 311.877H373.932C376.633 311.877 378.822 314.076 378.822 316.79V392.447H357.631V316.79Z" fill="#0F0F0F"/>
<defs>
<linearGradient id="paint0_linear_316_583" x1="199.036" y1="41" x2="70.749" y2="257.981" gradientUnits="userSpaceOnUse">
<stop stop-color="#D61211"/>
<stop offset="1" stop-color="#ED2917"/>
</linearGradient>
<linearGradient id="paint1_linear_316_583" x1="16.8832" y1="233" x2="128.949" y2="359.985" gradientUnits="userSpaceOnUse">
<stop offset="0.115385" stop-color="#D61211"/>
<stop offset="1" stop-color="#ED2917"/>
</linearGradient>
</defs>
</svg>
