<svg width="640" height="640" viewBox="0 0 640 640" fill="none" xmlns="http://www.w3.org/2000/svg">
<rect width="640" height="640" rx="144" fill="#0a0707"/>
<g transform="translate(120 90) scale(0.74)">
<path d="M246.77 470.634C237.444 502.963 170.808 543.374 237.331 607.41C149.67 648.443 111.859 580.055 111.859 580.055C139.328 595.244 158.487 584.407 158.487 584.407C95.6946 555.808 60.2572 541.509 36.5188 438.927C65.1175 485.739 76.7511 482.561 89.9858 471.877C95.5812 455.091 100.052 432.088 54.9279 406.359C-1.5497 374.157 -12.4831 301.529 13.0236 236.249C19.8461 267.335 37.254 314.585 89.4775 326.397C143.204 338.55 162.218 416.545 146.675 461.308C146.675 461.308 155.533 454.985 167.191 440.792C181.49 423.384 170.3 389.19 170.3 389.19C121.806 272.309 25.4415 247.44 132.997 157.914C222.957 83.0344 235.495 36.522 217.55 0C240.879 18.6337 273.667 54.6351 260.448 112.529C242.418 191.486 159.859 191.618 188.329 291.582C190.194 270.443 193.925 261.74 233.092 241.845C284.726 215.618 300.993 173.795 296.507 136.776C326.34 183.36 356.299 272.423 295.885 306.503C247.392 333.858 235.579 362.456 244.905 396.65C254.23 430.844 256.096 438.305 246.77 470.634Z" fill="#BA1513"/>
<mask id="mask0_324_490" style="mask-type:alpha" maskUnits="userSpaceOnUse" x="26" y="78" width="279" height="521">
<path d="M222.198 277.904C204.79 294.317 199.194 326.19 198.573 340.075C177.183 324.159 166.452 288.266 163.761 272.309C163.139 251.792 169.605 203.05 200.441 172.213C231.278 141.377 239.402 97.1938 239.609 78.957C218.72 119.244 183.655 150.454 168.734 161.023C106.563 205.164 111.538 235.628 116.511 256.144C120.034 267.542 135.411 298.669 168.734 331.993C202.058 365.316 198.683 420.897 185.839 442.035C169.973 468.147 151.645 469.39 139.833 486.177C119.316 443.279 146.353 369.295 91.0206 356.861C46.7549 346.914 29.8831 320.387 26.9804 308.368C24.908 323.91 32.8837 360.353 74.2302 391.677C124.29 429.601 110.269 459.123 116.511 500.476C124.899 527.417 156.163 584.78 214.115 598.706C207.599 593.111 156.677 552.227 207.599 488.663C233.996 455.713 232.808 412.57 224.97 386.703C218.753 366.187 228.415 331.495 268.204 304.637C307.993 277.78 307.164 222.572 301.776 198.325C264.474 271.687 243.957 257.388 222.198 277.904Z" fill="#D01112"/>
</mask>
<g mask="url(#mask0_324_490)">
<rect x="0.570312" y="9.32422" width="365.565" height="639.117" fill="#D61211"/>
<path d="M155.376 207.651C218.169 139.263 233.297 104.654 239.929 78.957L225.008 79.5787L186.459 132.424L128.643 171.592L101.909 243.088L149.781 333.858L184.596 354.374C175.893 338.21 104.484 263.078 155.376 207.651Z" fill="url(#paint0_linear_324_490)"/>
<path d="M259.601 276.04C284.668 263.46 298.991 223.817 302.099 197.083L300.851 187.758L277.848 217.6L259.601 232.76L194.177 272.08L194.177 321.425L205.113 368.053C204.491 352.511 194.281 308.822 259.601 276.04Z" fill="#ED2917"/>
<path d="M58.564 358.133C33.4973 345.553 26.6739 313.964 23.5653 287.231L32.8995 296.556L40.3175 299.692L58.564 314.853L123.988 354.173L137.96 401.625L131.121 442.658C126.147 420.898 123.884 390.915 58.564 358.133Z" fill="url(#paint1_linear_324_490)"/>
<path d="M171.029 464.418C190.426 444.523 197.762 408.878 199.006 393.543C208.537 411.78 223.373 454.719 206.462 480.582C189.552 506.445 187.397 537.365 188.433 549.592C172.02 539.147 162.116 521.201 159.216 513.533C155.071 505.451 151.631 484.313 171.029 464.418Z" fill="#DE1413"/>
<path d="M171.029 464.418C190.426 444.523 197.762 408.878 199.006 393.543C201.489 424.007 197.261 451.611 180.351 477.474C164.527 501.674 174.506 538.285 186.041 547.986C186.822 548.538 187.619 549.074 188.433 549.592C187.633 549.192 186.833 548.653 186.041 547.986C171.055 537.394 161.973 520.821 159.216 513.533C155.071 505.451 151.631 484.313 171.029 464.418Z" fill="#ED2115"/>
</g>
<g clip-path="url(#clip0_324_490)">
<path fill-rule="evenodd" clip-rule="evenodd" d="M395.847 25.3438C400.068 25.3438 403.753 27.6369 405.724 31.0452H420.69C420.69 36.2182 416.496 40.4118 411.323 40.4118H407.25V78.2858H412.952C421.498 78.2859 428.427 85.2143 428.427 93.7611V113.716H428.835C433.333 113.716 436.98 117.363 436.98 121.861V141.002C436.98 145.492 433.347 149.133 428.86 149.147H430.055V296.57H434.129C442.675 296.57 449.604 303.499 449.604 312.045V332H463.043C471.59 332 478.518 338.929 478.518 347.476V360.1H504.582C513.129 360.1 520.057 367.029 520.057 375.576V501.415H522.908C531.455 501.415 538.383 508.343 538.383 516.89V619.923H478.111V544.583C478.111 536.036 471.182 529.108 462.636 529.108H433.314C424.767 529.108 417.838 536.036 417.838 544.583V619.923H373.856V544.583C373.856 536.036 366.927 529.108 358.381 529.108H329.058C320.512 529.108 313.583 536.036 313.583 544.583V619.923H253.311V516.89C253.311 508.343 260.239 501.415 268.786 501.415H271.637V375.576C271.637 367.029 278.565 360.1 287.112 360.1H313.176V347.476C313.176 338.929 320.104 332 328.651 332H342.09V312.045C342.09 303.499 349.019 296.57 357.566 296.57H361.639V149.147C358.362 149.147 354.715 145.5 354.715 141.002V121.861C354.715 117.363 358.362 113.716 362.86 113.716H363.267V93.7611C363.267 85.2143 370.196 78.2858 378.743 78.2858H384.444V40.4118H380.372C375.199 40.4118 371.005 36.2182 371.005 31.0452H385.97C387.941 27.6369 391.627 25.3438 395.847 25.3438ZM318.47 393.902C318.47 390.528 321.205 387.793 324.579 387.793H338.832C342.206 387.793 344.941 390.528 344.941 393.902V487.976H318.47V393.902ZM361.231 393.902C361.231 390.528 363.966 387.793 367.34 387.793H381.594C384.967 387.793 387.702 390.528 387.702 393.902V487.976H361.231V393.902ZM403.992 487.976V393.902C403.992 390.528 406.727 387.793 410.101 387.793H424.354C427.728 387.793 430.463 390.528 430.463 393.902V487.976H403.992ZM446.753 393.902C446.753 390.528 449.488 387.793 452.862 387.793H467.115C470.489 387.793 473.224 390.528 473.224 393.902V487.976H446.753V393.902Z" fill="white"/>
</g>
</g>
<defs>
<linearGradient id="paint0_linear_324_490" x1="248.633" y1="50.9801" x2="89.475" y2="321.424" gradientUnits="userSpaceOnUse">
<stop stop-color="#D61211"/>
<stop offset="1" stop-color="#ED2917"/>
</linearGradient>
<linearGradient id="paint1_linear_324_490" x1="21.087" y1="289.717" x2="160.35" y2="448.253" gradientUnits="userSpaceOnUse">
<stop offset="0.115385" stop-color="#D61211"/>
<stop offset="1" stop-color="#ED2917"/>
</linearGradient>
<clipPath id="clip0_324_490">
<rect width="286" height="595" fill="white" transform="translate(253.311 25.3438)"/>
</clipPath>
</defs>
</svg>
